<?xml version="1.0" encoding="UTF-8" standalone="no"?>
<!-- Created with Inkscape (http://www.inkscape.org/) -->

<svg
   xmlns:dc="http://purl.org/dc/elements/1.1/"
   xmlns:cc="http://creativecommons.org/ns#"
   xmlns:rdf="http://www.w3.org/1999/02/22-rdf-syntax-ns#"
   xmlns:svg="http://www.w3.org/2000/svg"
   xmlns="http://www.w3.org/2000/svg"
   xmlns:sodipodi="http://sodipodi.sourceforge.net/DTD/sodipodi-0.dtd"
   xmlns:inkscape="http://www.inkscape.org/namespaces/inkscape"
   width="387.7692"
   height="230.91893"
   id="svg2"
   version="1.1"
   inkscape:version="0.48.4 r9939"
   sodipodi:docname="and.svg">
  <defs
     id="defs4" />
  <sodipodi:namedview
     id="base"
     pagecolor="#ffffff"
     bordercolor="#666666"
     borderopacity="1.0"
     inkscape:pageopacity="0.0"
     inkscape:pageshadow="2"
     inkscape:zoom="1.979899"
     inkscape:cx="134.11199"
     inkscape:cy="94.408426"
     inkscape:document-units="px"
     inkscape:current-layer="layer1"
     showgrid="false"
     inkscape:window-width="1853"
     inkscape:window-height="1058"
     inkscape:window-x="67"
     inkscape:window-y="1080"
     inkscape:window-maximized="1"
     fit-margin-top="0"
     fit-margin-left="0"
     fit-margin-right="0"
     fit-margin-bottom="0" />
  <metadata
     id="metadata7">
    <rdf:RDF>
      <cc:Work
         rdf:about="">
        <dc:format>image/svg+xml</dc:format>
        <dc:type
           rdf:resource="http://purl.org/dc/dcmitype/StillImage" />
        <dc:title />
      </cc:Work>
    </rdf:RDF>
  </metadata>
  <g
     style="display:inline"
     transform="translate(-5.3669401,-721.08403)"
     id="g3864"
     inkscape:groupmode="layer"
     inkscape:label="color">
    <path
       style="fill:#cccccc;fill-opacity:1;stroke:none"
       d="m 199.25,100.5625 c -22.29391,20.91679 -36.21875,50.64272 -36.21875,83.625 0,32.98228 13.92484,62.70821 36.21875,83.625 22.29391,-20.91679 36.21875,-50.64272 36.21875,-83.625 0,-32.98228 -13.92484,-62.70821 -36.21875,-83.625 z"
       transform="translate(0,652.36218)"
       id="path3866"
       inkscape:connector-curvature="0" />
  </g>
  <g
     inkscape:label="lines"
     inkscape:groupmode="layer"
     id="layer1"
     transform="translate(-5.3669401,-721.08403)"
     style="display:inline">
    <path
       sodipodi:type="arc"
       style="fill:none;stroke:#000000;stroke-opacity:1"
       id="path2987"
       sodipodi:cx="135.36044"
       sodipodi:cy="237.36543"
       sodipodi:rx="72.225906"
       sodipodi:ry="72.225906"
       d="m 207.58635,237.36543 c 0,39.88927 -32.33664,72.22591 -72.22591,72.22591 -39.889264,0 -72.225903,-32.33664 -72.225903,-72.22591 0,-39.88926 32.336639,-72.2259 72.225903,-72.2259 39.88927,0 72.22591,32.33664 72.22591,72.2259 z"
       transform="matrix(1.5874126,0,0,1.5874126,-94.044774,459.75623)" />
    <path
       sodipodi:type="arc"
       style="fill:none;stroke:#000000;stroke-opacity:1"
       id="path2987-1"
       sodipodi:cx="135.36044"
       sodipodi:cy="237.36543"
       sodipodi:rx="72.225906"
       sodipodi:ry="72.225906"
       d="m 207.58635,237.36543 c 0,39.88927 -32.33664,72.22591 -72.22591,72.22591 -39.889264,0 -72.225903,-32.33664 -72.225903,-72.22591 0,-39.88926 32.336639,-72.2259 72.225903,-72.2259 39.88927,0 72.22591,32.33664 72.22591,72.2259 z"
       transform="matrix(1.5874126,0,0,1.5874126,62.805486,459.75623)" />
  </g>
</svg>
